<svg xmlns="http://www.w3.org/2000/svg">

  <!-- Иконка поиск  -->
  <symbol id="icon-search" fill="none">
    <path
      d="M19.0257 17.05L15.3152 13.35C16.318 12.05 17.02 10.35 17.02 8.44995C17.02 4.04995 13.4098 0.449951 8.99732 0.449951C4.58483 0.449951 0.974609 4.14995 0.974609 8.54995C0.974609 12.95 4.58483 16.55 8.99732 16.55C10.8024 16.55 12.5072 15.95 13.9112 14.85L17.6217 18.55L19.0257 17.05ZM8.99732 14.55C5.68795 14.55 2.98029 11.85 2.98029 8.54995C2.98029 5.24995 5.68795 2.54995 8.99732 2.54995C12.3067 2.54995 15.0143 5.24995 15.0143 8.54995C15.0143 11.85 12.3067 14.55 8.99732 14.55Z"
      fill="currentColor" />
  </symbol>
  <!-- Иконка сердце  -->
  <symbol id="icon-heart" fill="none">
    <path
      d="M9.44382 17C9.14296 17 8.84211 16.9 8.64155 16.6C3.22622 10.5 1.92253 9.1 1.62168 8.7C0.91969 7.8 0.518555 6.6 0.518555 5.4C0.518555 2.4 2.92537 0 6.03416 0C7.33785 0 8.54126 0.5 9.5441 1.3C10.5469 0.5 11.8506 0 13.054 0C16.0625 0 18.5696 2.4 18.5696 5.4C18.5696 6.7 18.0682 7.9 17.266 8.8L10.2461 16.7C10.0455 16.9 9.84495 17 9.44382 17ZM3.42679 7.5C3.72764 7.9 6.93672 11.5 9.5441 14.4L15.7617 7.4C16.2631 6.9 16.4637 6.2 16.4637 5.4C16.4637 3.6 14.9594 2.1 13.1543 2.1C12.1515 2.1 11.1486 2.6 10.4467 3.4C10.1458 3.7 9.84495 3.8 9.5441 3.8C9.24325 3.8 8.9424 3.6 8.74183 3.4C8.03984 2.6 7.037 2.1 6.03416 2.1C4.22906 2.1 2.7248 3.6 2.7248 5.4C2.62452 6.3 3.02565 7 3.42679 7.5C3.3265 7.5 3.3265 7.5 3.42679 7.5Z"
      fill="currentColor" />
  </symbol>

  <!-- Иконка Дом  -->
  <symbol id="icon-home" viewBox="0 0 75 72" fill="none">
    <path d="M29.7 65H45.7V41.2H29.7V65ZM32.5999 44.1H42.7V62.1H32.5999V44.1Z" fill="currentColor" />
    <path
      d="M72.8 39.3L74.9 37.2L65 27.3V0H51.0999V13.6L37.5 0L0.199951 37.2L2.29995 39.3L10.1 31.5V69.1H6.09995V72H70V69.1H64.9V31.5L72.8 39.3ZM62 69.1H13V28.5L37.5 4.1L62 28.5V69.1ZM62 24.4L54.0999 16.5V2.9H62V24.4Z"
      fill="currentColor" />
    <path
      d="M29.9 27.1C29.9 31.4 33.3999 34.8 37.5999 34.8C41.8999 34.8 45.4 31.3 45.4 27.1C45.4 22.8 41.8999 19.4 37.5999 19.4C33.3999 19.4 29.9 22.8 29.9 27.1ZM37.7 22.1C40.4 22.1 42.7 24.3 42.7 27C42.7 29.7 40.5 31.9 37.7 31.9C35 31.9 32.7 29.7 32.7 27C32.7 24.3 34.9 22.1 37.7 22.1Z"
      fill="currentColor" />
    <path d="M20.1 41.2H17.1V45.1H20.1V41.2Z" fill="currentColor" />
    <path d="M26 41.2H23V45.1H26V41.2Z" fill="currentColor" />
    <path d="M20.1 47.2H17.1V51.1H20.1V47.2Z" fill="currentColor" />
    <path d="M26 47.2H23V51.1H26V47.2Z" fill="currentColor" />
    <path d="M52 41.2H49V45.1H52V41.2Z" fill="currentColor" />
    <path d="M57.9 41.2H54.9V45.1H57.9V41.2Z" fill="currentColor" />
    <path d="M52 47.2H49V51.1H52V47.2Z" fill="currentColor" />
    <path d="M57.9 47.2H54.9V51.1H57.9V47.2Z" fill="currentColor" />
  </symbol>



</svg>
