<svg xmlns="http://www.w3.org/2000/svg">

  <!-- Иконка поиск  -->
  <symbol id="icon-search" fill="none">
    <path
      d="M19.0257 17.05L15.3152 13.35C16.318 12.05 17.02 10.35 17.02 8.44995C17.02 4.04995 13.4098 0.449951 8.99732 0.449951C4.58483 0.449951 0.974609 4.14995 0.974609 8.54995C0.974609 12.95 4.58483 16.55 8.99732 16.55C10.8024 16.55 12.5072 15.95 13.9112 14.85L17.6217 18.55L19.0257 17.05ZM8.99732 14.55C5.68795 14.55 2.98029 11.85 2.98029 8.54995C2.98029 5.24995 5.68795 2.54995 8.99732 2.54995C12.3067 2.54995 15.0143 5.24995 15.0143 8.54995C15.0143 11.85 12.3067 14.55 8.99732 14.55Z"
      fill="currentColor" />
  </symbol>
  <!-- Иконка сердце  -->
  <symbol id="icon-heart" fill="none">
    <path
      d="M9.44382 17C9.14296 17 8.84211 16.9 8.64155 16.6C3.22622 10.5 1.92253 9.1 1.62168 8.7C0.91969 7.8 0.518555 6.6 0.518555 5.4C0.518555 2.4 2.92537 0 6.03416 0C7.33785 0 8.54126 0.5 9.5441 1.3C10.5469 0.5 11.8506 0 13.054 0C16.0625 0 18.5696 2.4 18.5696 5.4C18.5696 6.7 18.0682 7.9 17.266 8.8L10.2461 16.7C10.0455 16.9 9.84495 17 9.44382 17ZM3.42679 7.5C3.72764 7.9 6.93672 11.5 9.5441 14.4L15.7617 7.4C16.2631 6.9 16.4637 6.2 16.4637 5.4C16.4637 3.6 14.9594 2.1 13.1543 2.1C12.1515 2.1 11.1486 2.6 10.4467 3.4C10.1458 3.7 9.84495 3.8 9.5441 3.8C9.24325 3.8 8.9424 3.6 8.74183 3.4C8.03984 2.6 7.037 2.1 6.03416 2.1C4.22906 2.1 2.7248 3.6 2.7248 5.4C2.62452 6.3 3.02565 7 3.42679 7.5C3.3265 7.5 3.3265 7.5 3.42679 7.5Z"
      fill="currentColor" />
  </symbol>

  <!-- Иконка Дом  -->
  <symbol id="icon-home" viewBox="0 0 75 72" fill="none">
    <path d="M29.5 65H45.5V41.2H29.5V65ZM32.4 44.1H42.5V62.1H32.4V44.1Z" fill="currentColor" />
    <path
      d="M72.6 39.3L74.7 37.2L64.8 27.3V0H50.9V13.6L37.3 0L0 37.2L2.1 39.3L9.9 31.5V69.1H5.9V72H69.8V69.1H64.7V31.5L72.6 39.3ZM61.8 69.1H12.8V28.5L37.3 4.1L61.8 28.5V69.1ZM61.8 24.4L53.9 16.5V2.9H61.8V24.4Z"
      fill="currentColor" />
    <path
      d="M29.7 27.1C29.7 31.4 33.2 34.8 37.4 34.8C41.7 34.8 45.2 31.3 45.2 27.1C45.2 22.8 41.7 19.4 37.4 19.4C33.2 19.4 29.7 22.8 29.7 27.1ZM37.5 22.1C40.2 22.1 42.5 24.3 42.5 27C42.5 29.7 40.3 31.9 37.5 31.9C34.8 31.9 32.5 29.7 32.5 27C32.5 24.3 34.7 22.1 37.5 22.1Z"
      fill="currentColor" />
    <path d="M19.9 41.2H16.9V45.1H19.9V41.2Z" fill="currentColor" />
    <path d="M25.8 41.2H22.8V45.1H25.8V41.2Z" fill="currentColor" />
    <path d="M19.9 47.2H16.9V51.1H19.9V47.2Z" fill="currentColor" />
    <path d="M25.8 47.2H22.8V51.1H25.8V47.2Z" fill="currentColor" />
    <path d="M51.8 41.2H48.8V45.1H51.8V41.2Z" fill="currentColor" />
    <path d="M57.7 41.2H54.7V45.1H57.7V41.2Z" fill="currentColor" />
    <path d="M51.8 47.2H48.8V51.1H51.8V47.2Z" fill="currentColor" />
    <path d="M57.7 47.2H54.7V51.1H57.7V47.2Z" fill="currentColor" />
  </symbol>

  <!-- иконка бургер  -->
  <symbol id="icon-burger" viewBox="0 0 74 70" fill="none">
    <path
      d="M69.9 46.7H4.1C1.8 46.7 0 48.6 0 51V54.5C0 56.9 1.9 58.8 4.1 58.8H5V59.9C5 65.4 9.3 70 14.6 70H59.2C64.5 70 68.8 65.5 68.8 59.9V58.8H69.7C72 58.8 73.8 56.9 73.8 54.5V51C74 48.7 72.1 46.7 69.9 46.7ZM66 59.9C66 63.8 63 66.9 59.3 66.9H14.6C10.9 66.9 7.9 63.7 7.9 59.9V58.8H66V59.9ZM71.1 54.5C71.1 55.2 70.5 55.8 69.9 55.8H4C3.3 55.8 2.8 55.2 2.8 54.5V51C2.8 50.3 3.4 49.7 4 49.7H69.8C70.5 49.7 71 50.3 71 51C71.1 51 71.1 54.5 71.1 54.5Z"
      fill="currentColor" />
    <path
      d="M15.6 38.4L21 42.5L26.3 38.4L31.6 42.5L36.9 38.4L42.3 42.5L47.6 38.4L52.9 42.5L58.3 38.4L63.6 42.5L69.8 37.8L68.1 35.3L63.6 38.7L58.3 34.6L52.9 38.7L47.6 34.6L42.3 38.7L36.9 34.6L31.6 38.7L26.3 34.6L21 38.7L15.6 34.6L10.3 38.7L5.8 35.3L4.1 37.8L10.3 42.5L15.6 38.4Z"
      fill="currentColor" />
    <path
      d="M8 31.5H68.8C68.8 30.9 68.9 30.3 68.9 29.6C68.9 29.2 68.9 28.8 68.9 28.4C68.2 12.7 54.2 0 37 0C19.7 0 5.7 12.7 5 28.5C5 28.9 5 29.3 5 29.7C5 30.3 5 31 5.1 31.6H8V31.5ZM37 3C52.6 3 65.4 14.3 66 28.5H8C8.6 14.4 21.4 3 37 3Z"
      fill="currentColor" />
    <path
      d="M37 17.3C38.0493 17.3 38.9 16.4046 38.9 15.3C38.9 14.1954 38.0493 13.3 37 13.3C35.9507 13.3 35.1 14.1954 35.1 15.3C35.1 16.4046 35.9507 17.3 37 17.3Z"
      fill="currentColor" />
    <path
      d="M29.2 12.2C30.2493 12.2 31.1 11.3046 31.1 10.2C31.1 9.09543 30.2493 8.2 29.2 8.2C28.1507 8.2 27.3 9.09543 27.3 10.2C27.3 11.3046 28.1507 12.2 29.2 12.2Z"
      fill="currentColor" />
    <path
      d="M44.7 12.2C45.7493 12.2 46.6 11.3046 46.6 10.2C46.6 9.09543 45.7493 8.2 44.7 8.2C43.6507 8.2 42.8 9.09543 42.8 10.2C42.8 11.3046 43.6507 12.2 44.7 12.2Z"
      fill="currentColor" />
  </symbol>

  <!-- иконка подарок  -->
  <symbol id="icon-gift" viewBox="0 0 64 76" fill="none">
    <path
      d="M61.1 22.5H36.3C50.1 15.6 51.2 11.2 50.7 8.79997C49.5 4.79997 45 1.79997 40.7 3.39997C35.1 5.49997 33.6 13.8 32.1 19.8C30.1 13.7 28.3 5.99997 23.9 2.09997C22.6 0.999966 20.8 -0.200034 18.1 0.0999663C14.1 0.499966 8.3 5.49997 10.6 11.1C12.9 16.5 20.3 19.9 25.2 22.6H2.9C1.3 22.6 0 23.9 0 25.5V36.8C0 38.4 1.3 39.7 2.9 39.7H3.2V76H61V39.6H61.1C62.7 39.6 64 38.3 64 36.7V25.4C64 23.8 62.7 22.5 61.1 22.5ZM42.4 5.89997C44.5 5.59997 47.4 7.19997 47.7 9.09997C48.1 11.9 44.3 14.4 42.6 15.5C40.1 17.2 37.7 18.1 35.3 19.6C36.2 15.9 37.8 6.59997 42.4 5.89997ZM19.5 15.9C17.3 14.4 13 11.5 13.1 8.09997C13.2 4.49997 18.8 1.49997 21.9 4.19997C25.8 7.59997 27.6 15.3 29 20.8C25.8 19.3 22.7 18 19.5 15.9ZM25.5 73H6.1V39.6H25.5V73ZM25.5 36.5H3V25.5H25.5V36.5ZM35.7 73H28.5V25.6H35.7V73ZM58 73H38.6V39.6H58V73ZM60.9 36.5H38.6V25.5H60.9V36.5Z"
      fill="currentColor" />
  </symbol>


</svg>
